General                          : ChattChitto RG - Movies [R2L]
==========
Complete name                    : Enter The Void LiMiTED 2009 720p BRRip H264 [ChattChitto RG]
Format                           : MPEG-4
Format profile                   : Base Media
Codec ID                         : isom
File size                        : 2.93 GiB
Duration                         : 2h 41mn
Overall bit rate                 : 2 599 Kbps
Encoded date                     : UTC 2011-04-14 21:43:14

Video
==========
ID                               : 1
Format                           : AVC
Format/Info                      : Advanced Video Codec
Format profile                   : High@L4.1
Format settings, CABAC           : Yes
Format settings, ReFrames        : 4 frames
Codec ID                         : avc1
Codec ID/Info                    : Advanced Video Coding
Duration                         : 2h 41mn
Bit rate mode                    : Variable
Bit rate                         : 2 400 Kbps
Maximum bit rate                 : 23.6 Mbps
Width                            : 1 280 pixels
Height                           : 544 pixels
Display aspect ratio             : 2.35:1
Frame rate mode                  : Constant
Frame rate                       : 23.976 fps
Color space                      : YUV
Chroma subsampling               : 4:2:0
Bit depth                        : 8 bits
Scan type                        : Progressive
Bits/(Pixel*Frame)               : 0.144
Stream size                      : 2.70 GiB (92%)
Writing library                  : x264 core 114 r1913 5fd3dce
Encoded date                     : UTC 2011-04-11 23:56:24

Audio
==========
ID                               : 2
Format                           : AAC
Format/Info                      : Advanced Audio Codec
Format profile                   : LC
Codec ID                         : 40
Duration                         : 2h 41mn
Bit rate mode                    : Variable
Bit rate                         : 192 Kbps
Maximum bit rate                 : 444 Kbps
Channel(s)                       : 6 channels
Channel positions                : Front: L C R, Side: L R, LFE
Sampling rate                    : 48.0 KHz
Compression mode                 : Lossy
Stream size                      : 225 MiB (8%)
Encoded date                     : UTC 2011-04-14 21:44:21

Subtitles                        : English | French


----------------------------------------------------
IMDB Link: http://www.imdb.com/title/tt1191111/
----------------------------------------------------



Screen Shots:
==============    
http://chattchitto.net/chattchittorg/movies/brrip/2011/enter_the_void/1.png 
http://chattchitto.net/chattchittorg/movies/brrip/2011/enter_the_void/2.png 
http://chattchitto.net/chattchittorg/movies/brrip/2011/enter_the_void/3.png 
http://chattchitto.net/chattchittorg/movies/brrip/2011/enter_the_void/4.png 
http://chattchitto.net/chattchittorg/movies/brrip/2011/enter_the_void/5.png 
http://chattchitto.net/chattchittorg/movies/brrip/2011/enter_the_void/6.png 
http://chattchitto.net/chattchittorg/movies/brrip/2011/enter_the_void/7.png



ScreenShots Comparison:
=========================  
http://screenshotcomparison.com/comparison/43959



Plot:
======
A drug-dealing teen is killed in Japan, after which he reappears as a ghost to watch over his sister.



Release Info:
==============
original name .... : Enter The Void LiMiTED 2009 720p BRRip H264 [ChattChitto RG]
ripper.............: REFiNED
encoder............: Recalled2Life (R2L)
video codec........: H264/.MP4
video bitrate......: 2400
audio codec........: AAC-LC
aspect ratio.......: 2.35:1
resolution.........: 1280 x 544
genre..............: Drama | Thriller
runtime............: 2h 41mn
language...........: English
rating.............: Not Rated
subtitles..........: English | French
sample.............: Yes
2ch Audio..........: 2ch Audio for XBox Viewers
Compatibility .....: XBox | PS3 | WD Live



Source:
========
Enter.The.Void.LIMITED.1080p.BluRay.x264-REFiNED



Notes:
=======
ChattChitto RG Encourages Burning this Film with ConvertXtoDVD and Playing with VLC media player.
XBox 360 | PS3 | WD Live - Compatible 
Enhanced for your viewing pleasure ;)